<svg width="312" height="41" viewBox="0 0 312 41" fill="none" xmlns="http://www.w3.org/2000/svg">
<path fill-rule="evenodd" clip-rule="evenodd" d="M12.3944 37C14.8465 37 17.1323 36.052 19.0563 34.4163C20.9803 36.052 23.2662 37 25.7183 37C28.4739 37 31.0194 35.8029 33.0775 33.778C35.1355 35.8029 37.6811 37 40.4366 37C47.2818 37 52.831 29.6127 52.831 20.5C52.831 11.3873 47.2818 4 40.4366 4C37.6811 4 35.1355 5.1971 33.0775 7.22196C31.0194 5.1971 28.4739 4 25.7183 4C23.2662 4 20.9803 4.94799 19.0563 6.5837C17.1323 4.94799 14.8465 4 12.3944 4C5.54915 4 0 11.3873 0 20.5C0 29.6127 5.54915 37 12.3944 37Z" fill="url(#paint0_radial_7016_1100)"/>
<path fill-rule="evenodd" clip-rule="evenodd" d="M12.3944 37C14.8465 37 17.1323 36.052 19.0563 34.4163C20.9803 36.052 23.2662 37 25.7183 37C28.4739 37 31.0194 35.8029 33.0775 33.778C35.1355 35.8029 37.6811 37 40.4366 37C47.2818 37 52.831 29.6127 52.831 20.5C52.831 11.3873 47.2818 4 40.4366 4C37.6811 4 35.1355 5.1971 33.0775 7.22196C31.0194 5.1971 28.4739 4 25.7183 4C23.2662 4 20.9803 4.94799 19.0563 6.5837C17.1323 4.94799 14.8465 4 12.3944 4C5.54915 4 0 11.3873 0 20.5C0 29.6127 5.54915 37 12.3944 37Z" fill="url(#paint1_radial_7016_1100)"/>
<path d="M10.2364 21.112L10.0363 21.8557L10.7887 22.0571L10.6446 21.5071L10.2364 21.112ZM13.9906 21.5071L13.8465 22.0571L14.5989 21.8557L14.3988 21.112L13.9906 21.5071ZM10.6446 19.6479L10.2364 20.043L10.3885 20.5775L10.6446 19.6479Z" fill="white"/>
<path d="M10.3881 20.5776L10.236 21.1121L10.6442 21.5072L10.3881 20.5776Z" fill="white"/>
<path d="M10.2359 20.043L9.68359 20.5775L10.2359 21.112L10.388 20.5775L10.2359 20.043ZM11.3566 22.1965L11.7648 22.5916L12.3171 22.4444L11.3566 22.1965ZM12.8695 22.5916L13.6379 22.7852L13.846 22.0571L13.2777 22.1965L12.8695 22.5916Z" fill="white"/>
<path d="M13.2775 22.1965L13.8459 22.0571L13.99 21.5071L13.2775 22.1965ZM10.7881 22.0571L10.9962 22.7853L11.7647 22.5916L11.3564 22.1965L10.7881 22.0571ZM12.317 22.4444L12.8693 22.5916L13.2775 22.1965L12.317 22.4444Z" fill="white"/>
<path d="M11.7653 22.5916L12.3176 23.1261L12.8699 22.5916L12.3176 22.4444L11.7653 22.5916ZM10.7887 19.0979L10.0363 19.2993L10.2364 20.043L10.6446 19.6479L10.7887 19.0979ZM10.6446 21.5071L10.7887 22.0571L11.357 22.1965L10.6446 21.5071ZM14.2467 20.5775L14.3988 20.043L13.9906 19.6479L14.2467 20.5775Z" fill="white"/>
<path d="M11.3566 18.9585L10.7882 19.0979L10.6442 19.6479L11.3566 18.9585ZM13.9901 19.6479L13.846 19.0979L13.2777 18.9585L13.9901 19.6479ZM14.3984 21.112L14.9507 20.5775L14.3984 20.043L14.2463 20.5775L14.3984 21.112Z" fill="white"/>
<path d="M13.9903 19.648L13.2779 18.9586L12.3173 18.7107L11.3568 18.9586L10.6443 19.648L10.3882 20.5776L10.6443 21.5072L11.3568 22.1966L12.3173 22.4445L13.2779 22.1966L13.9903 21.5072L14.2465 20.5776L13.9903 19.648Z" fill="white"/>
<path d="M13.99 21.5072L14.3982 21.1121L14.2461 20.5776L13.99 21.5072ZM14.3982 20.0431L14.5983 19.2995L13.8459 19.098L13.99 19.648L14.3982 20.0431ZM13.8459 19.098L13.6378 18.3699L12.8693 18.5635L13.2775 18.9586L13.8459 19.098ZM11.7647 18.5635L10.9962 18.3699L10.7881 19.098L11.3564 18.9586L11.7647 18.5635ZM12.317 18.7107L11.7647 18.5635L11.3564 18.9586L12.317 18.7107Z" fill="white"/>
<path d="M12.8698 18.5636L12.3175 18.0291L11.7651 18.5636L12.3175 18.7107L12.8698 18.5636Z" fill="white"/>
<path d="M13.2777 18.9585L12.8695 18.5635L12.3171 18.7107L13.2777 18.9585ZM11.7648 22.5917L10.9964 22.7853L11.3566 24.0712L12.3171 23.1262L11.7648 22.5917ZM11.3566 24.0712L12.3171 27.5494L13.2777 24.0712L12.3171 23.1262L11.3566 24.0712ZM10.7882 22.0571L10.0358 21.8557L9.68359 23.1262L10.9964 22.7853L10.7882 22.0571Z" fill="white"/>
<path d="M9.68373 23.1261L8.72317 26.6198L11.3567 24.0712L10.9965 22.7853L9.68373 23.1261ZM8.72317 21.5071L6.07361 24.0712L9.68373 23.1261L10.0359 21.8557L8.72317 21.5071Z" fill="white"/>
<path d="M10.236 21.112L9.68371 20.5775L8.72314 21.5071L10.0359 21.8557L10.236 21.112ZM10.236 20.043L10.0359 19.2993L8.72314 19.6479L9.68371 20.5775L10.236 20.043Z" fill="white"/>
<path d="M8.72316 19.6479L5.11304 20.5775L8.72316 21.5071L9.68372 20.5775L8.72316 19.6479ZM15.9274 21.5071L14.5986 21.8557L14.9508 23.1261L18.5609 24.0712L15.9274 21.5071Z" fill="white"/>
<path d="M13.8462 22.0572L13.638 22.7854L14.9508 23.1262L14.5986 21.8558L13.8462 22.0572ZM12.8696 22.5917L12.3173 23.1262L13.2778 24.0713L13.638 22.7854L12.8696 22.5917ZM14.3985 21.1121L14.5986 21.8558L15.9274 21.5072L14.9508 20.5776L14.3985 21.1121Z" fill="white"/>
<path d="M13.2778 24.0713L15.9274 26.6199L14.9508 23.1262L13.638 22.7854L13.2778 24.0713ZM13.8462 19.0981L14.5986 19.2995L14.9508 18.0291L13.638 18.3699L13.8462 19.0981Z" fill="white"/>
<path d="M15.9274 19.6481L18.5609 17.0995L14.9508 18.0291L14.5986 19.2995L15.9274 19.6481ZM14.9508 18.0291L15.9274 14.5354L13.2778 17.0995L13.638 18.3699L14.9508 18.0291ZM15.9274 21.5072L19.5215 20.5777L15.9274 19.6481L14.9508 20.5777L15.9274 21.5072Z" fill="white"/>
<path d="M14.3985 20.0432L14.9508 20.5777L15.9274 19.6481L14.5986 19.2995L14.3985 20.0432ZM11.3567 17.0995L8.72314 14.5354L9.68371 18.0291L10.9965 18.3699L11.3567 17.0995Z" fill="white"/>
<path d="M10.7882 19.0981L10.9964 18.3699L9.68359 18.0291L10.0358 19.2995L10.7882 19.0981Z" fill="white"/>
<path d="M9.68373 18.0289L6.07361 17.0994L8.72317 19.648L10.0359 19.2994L9.68373 18.0289ZM12.8696 18.5635L13.6381 18.3698L13.2778 17.0994L12.3173 18.0289L12.8696 18.5635Z" fill="white"/>
<path d="M13.2778 17.0994L12.3173 13.6057L11.3567 17.0994L12.3173 18.029L13.2778 17.0994Z" fill="white"/>
<path d="M11.7647 18.5635L12.317 18.0289L11.3564 17.0994L10.9962 18.3698L11.7647 18.5635Z" fill="white"/>
<path d="M12.317 24.5361C14.576 24.5361 16.4074 22.7638 16.4074 20.5776C16.4074 18.3914 14.576 16.6191 12.317 16.6191C10.0579 16.6191 8.22656 18.3914 8.22656 20.5776C8.22656 22.7638 10.0579 24.5361 12.317 24.5361Z" fill="#FE00BA"/>
<path d="M12.3174 24.0711C14.3112 24.0711 15.9275 22.5069 15.9275 20.5774C15.9275 18.6479 14.3112 17.0837 12.3174 17.0837C10.3236 17.0837 8.70728 18.6479 8.70728 20.5774C8.70728 22.5069 10.3236 24.0711 12.3174 24.0711Z" fill="white"/>
<path d="M33.8618 20.5174C33.8618 22.6846 33.1992 24.6304 32.1481 26.0249C31.0972 27.4192 29.6772 28.2428 28.1438 28.2428C26.6104 28.2428 25.1905 27.4192 24.1395 26.0249C23.0884 24.6304 22.4258 22.6846 22.4258 20.5174C22.4258 18.3502 23.0884 16.4045 24.1395 15.0099C25.1905 13.6156 26.6104 12.792 28.1438 12.792C29.6772 12.792 31.0972 13.6156 32.1481 15.0099C33.1992 16.4045 33.8618 18.3502 33.8618 20.5174Z" stroke="white" stroke-width="0.851618"/>
<mask id="mask0_7016_1100" style="mask-type:alpha" maskUnits="userSpaceOnUse" x="22" y="12" width="13" height="17">
<ellipse cx="28.1438" cy="20.5174" rx="6.14382" ry="8.1512" fill="white"/>
</mask>
<g mask="url(#mask0_7016_1100)">
<ellipse cx="31.6717" cy="20.5174" rx="5.17458" ry="6.86529" fill="white"/>
</g>
<path d="M47.2925 20.5174C47.2925 22.6846 46.6299 24.6304 45.5788 26.0249C44.5278 27.4192 43.1079 28.2428 41.5745 28.2428C40.0411 28.2428 38.6211 27.4192 37.5702 26.0249C36.5191 24.6304 35.8565 22.6846 35.8565 20.5174C35.8565 18.3502 36.5191 16.4045 37.5702 15.0099C38.6211 13.6156 40.0411 12.792 41.5745 12.792C43.1079 12.792 44.5278 13.6156 45.5788 15.0099C46.6299 16.4045 47.2925 18.3502 47.2925 20.5174Z" stroke="white" stroke-width="0.851618"/>
<mask id="mask1_7016_1100" style="mask-type:alpha" maskUnits="userSpaceOnUse" x="35" y="12" width="13" height="17">
<ellipse cx="41.5745" cy="20.5174" rx="6.14382" ry="8.1512" fill="white"/>
</mask>
<g mask="url(#mask1_7016_1100)">
<ellipse cx="45.1026" cy="20.5174" rx="5.17458" ry="6.86529" fill="white"/>
</g>
<path d="M88.7191 18.272C87.7297 19.0933 86.5817 20.456 85.2751 22.36H86.6471V33H79.8991V32.58H69.7631V33H63.0151V22.36H82.7831L81.4671 20.96L62.1191 21.94C62.0817 21.604 62.0444 21.3427 62.0071 21.156C61.7644 19.14 61.5031 17.5627 61.2231 16.424L64.9751 16.34L67.9431 11.412L75.6151 11.888L73.1791 16.172L77.5191 16.06C76.8657 15.1453 76.2031 14.044 75.5311 12.756L81.6071 11.468C82.7271 13.0547 83.9124 14.408 85.1631 15.528C86.4137 16.648 87.5991 17.5627 88.7191 18.272ZM69.7631 26.56V27.848H79.8991V26.56H69.7631ZM103.055 27.904H116.215C116.215 28.7253 116.178 29.4813 116.103 30.172C116.028 31.1987 115.506 31.9267 114.535 32.356C113.564 32.7667 112.164 32.972 110.335 32.972H105.547H102.439C102.308 32.356 102.094 31.7867 101.795 31.264C99.4617 30.9467 97.3711 30.7787 95.5231 30.76C96.1951 29.0427 96.6524 27.4933 96.8951 26.112H108.599V25.776H96.0831V24.572L95.9151 25.44C95.1684 29.2293 94.6364 31.7773 94.3191 33.084C91.8924 32.4867 90.0351 32.0853 88.7471 31.88C89.3257 30.2747 89.8017 28.7347 90.1751 27.26C90.5484 25.7667 90.9124 24.152 91.2671 22.416L93.1711 22.724C91.9951 22.0893 90.6044 21.5573 88.9991 21.128L91.6031 16.844C92.4991 17.1053 93.6377 17.572 95.0191 18.244L95.9431 18.664C95.9431 18.0853 95.8964 17.404 95.8031 16.62L96.9791 16.564L97.3991 16.116C97.0631 15.7427 96.6711 15.3413 96.2231 14.912L94.9351 17.6C92.9937 16.704 90.9777 16.0507 88.8871 15.64L91.2671 11.16C92.0884 11.3653 93.2924 11.7947 94.8791 12.448L96.3071 13.008L96.6991 12.168L97.0631 12.504C97.3991 11.9813 97.6604 11.4867 97.8471 11.02L100.031 11.636L98.4911 13.932L98.8271 14.296C99.5177 13.344 100.152 12.3173 100.731 11.216L102.495 11.776H109.831V13.288H102.495V12.56L102.019 13.232C101.776 13.624 101.515 14.0067 101.235 14.38L101.935 14.268C101.991 14.772 102.056 15.276 102.131 15.78C102.224 16.284 102.29 16.648 102.327 16.872C102.476 17.7307 102.57 18.3187 102.607 18.636L101.039 18.86L100.983 18.384L100.563 18.468L100.451 23.508H97.7631L97.8471 18.832L96.5591 18.972L96.3351 19.392L97.3991 19.364V20.26C97.3991 21.3427 97.3431 22.4067 97.2311 23.452C97.0817 23.4333 96.9324 23.4147 96.7831 23.396C96.6524 23.3773 96.4937 23.368 96.3071 23.368L96.2231 23.816H115.543V27.624H103.111L103.055 27.904ZM109.943 13.736L110.671 12.168L111.035 12.504C111.371 11.9813 111.632 11.4867 111.819 11.02L114.003 11.636C113.312 12.6813 112.799 13.4373 112.463 13.904L112.799 14.296C113.49 13.3813 114.134 12.3547 114.731 11.216L116.523 12.168L115.011 14.408L115.907 14.268C116.075 15.668 116.262 16.9093 116.467 17.992L116.579 18.636L115.011 18.86L114.955 18.384L114.535 18.468L114.423 23.508H111.735L111.819 18.832C111.632 18.8507 110.97 18.916 109.831 19.028C109.831 18.076 109.775 17.2733 109.663 16.62L110.979 16.564L111.371 16.144C110.998 15.696 110.54 15.22 109.999 14.716V15.388H102.383V13.736H109.943ZM114.451 15.248L113.667 16.48C113.928 16.48 114.246 16.4613 114.619 16.424L114.451 15.248ZM99.7511 16.48L100.647 16.424C100.628 16.2187 100.582 15.892 100.507 15.444L99.7511 16.48ZM102.915 15.892H109.383V17.432H102.915V15.892ZM109.383 19.392H102.915V17.88H109.383V19.392ZM100.927 23.368C100.871 21.7067 100.843 20.344 100.843 19.28L102.271 19.196C102.271 20.876 102.29 22.2107 102.327 23.2C102.084 23.256 101.618 23.312 100.927 23.368ZM116.215 19.196C116.215 19.9427 116.234 20.5867 116.271 21.128C116.308 21.6507 116.374 22.332 116.467 23.172C115.571 23.284 115.048 23.3493 114.899 23.368C114.843 21.7067 114.815 20.344 114.815 19.28L116.215 19.196ZM109.887 23.34C110.018 22.1453 110.083 20.8293 110.083 19.392L111.371 19.364V20.26C111.371 21.3427 111.315 22.4067 111.203 23.452C110.456 23.3773 110.018 23.34 109.887 23.34ZM94.2911 22.92L95.8031 23.172C95.9337 22.5187 96.0177 21.9493 96.0551 21.464C96.0924 20.9787 96.1111 20.4093 96.1111 19.756L94.2911 22.92ZM109.579 23.508H102.719V19.868H109.579V23.508ZM106.891 21.408H105.407V22.08H106.891V21.408ZM102.523 29.696L102.411 30.004C104.11 30.06 106.154 30.088 108.543 30.088C108.954 30.088 109.234 30.0693 109.383 30.032C109.551 29.976 109.644 29.864 109.663 29.696H102.523ZM136.991 28.884V29.276H143.907V32.776H123.551V29.808C123.383 31.0773 123.122 32.216 122.767 33.224C121.442 32.5707 120.359 32.0667 119.519 31.712C118.679 31.3573 117.783 31.096 116.831 30.928C117.204 29.92 117.484 28.94 117.671 27.988C117.858 27.0173 117.988 25.7293 118.063 24.124C118.156 22.5187 118.203 20.2507 118.203 17.32V12.056L143.879 12.084L143.907 16.536H124.055C124.036 16.704 124.027 16.844 124.027 16.956C124.046 17.0493 124.055 17.1427 124.055 17.236V18.636C124.055 19.9427 124.036 21.492 123.999 23.284C124.596 23.172 125.044 23.0507 125.343 22.92C125.66 22.7893 125.912 22.612 126.099 22.388H124.419V19.868H126.603V19.56H124.699C124.718 18.776 124.624 17.9453 124.419 17.068H125.539C127.63 17.068 130.159 17.0027 133.127 16.872C132.94 17.8053 132.847 18.636 132.847 19.364L130.999 19.448V19.868H133.127V22.388H131.167C131.914 22.78 132.782 23.032 133.771 23.144L133.519 23.368C133.986 23.256 134.378 23.1347 134.695 23.004C135.031 22.8547 135.33 22.6493 135.591 22.388H133.603V19.868H135.899V19.56H133.687C133.706 18.7387 133.603 17.908 133.379 17.068H134.639C136.954 17.068 139.744 17.0027 143.011 16.872C142.806 17.7493 142.703 18.58 142.703 19.364L140.463 19.448V19.868H143.011V22.388H140.771C141.462 22.836 142.395 23.1627 143.571 23.368C143.048 24.0773 142.684 25.1133 142.479 26.476C141.564 26.14 140.892 25.5333 140.463 24.656V26.364H136.991V26.784H142.983V28.884H136.991ZM123.971 23.816C123.915 25.832 123.794 27.652 123.607 29.276H124.979V26.672H130.607V29.276H131.391V26.028H132.231C131.746 25.7667 131.335 25.5053 130.999 25.244V26.364H126.603V25.02C126.211 25.692 125.67 26.1773 124.979 26.476C124.904 25.9347 124.792 25.4587 124.643 25.048C124.494 24.6187 124.27 24.208 123.971 23.816ZM133.855 26.028C133.575 25.468 133.239 24.9173 132.847 24.376C132.66 24.768 132.474 25.3187 132.287 26.028H133.855ZM135.899 24.712C135.638 25.1413 135.218 25.58 134.639 26.028H135.899V24.712ZM171.991 25.048V30.368H164.011V33.14H157.879V30.368H145.671V25.048H149.311V22.892C148.938 23.284 148.536 23.6573 148.107 24.012C147.64 22.6307 147.192 21.4453 146.763 20.456C146.352 19.448 145.858 18.4867 145.279 17.572C146.231 16.9373 146.987 16.0787 147.547 14.996C148.126 13.9133 148.424 12.6907 148.443 11.328L154.771 11.384C154.734 11.8133 154.678 12.2707 154.603 12.756H170.927V17.796H164.011V19H170.171V23.452H164.011V25.048H171.991ZM157.879 17.796H152.979L152.335 19H157.879V17.796ZM155.331 23.452V25.048H157.879V23.452H155.331ZM197.331 25.496C197.704 26.0747 198.18 26.5227 198.759 26.84C199.338 27.1573 200.056 27.3627 200.915 27.456C200.504 28.24 200.15 29.0707 199.851 29.948C199.571 30.8067 199.282 31.8987 198.983 33.224C197.938 32.5893 197.004 31.74 196.183 30.676C196.202 30.7693 196.211 30.9 196.211 31.068C196.211 32.1133 195.688 32.692 194.643 32.804C193.542 32.8787 192.534 32.916 191.619 32.916C190.667 32.916 189.752 32.8787 188.875 32.804C188.259 32.748 187.802 32.608 187.503 32.384C187.223 32.1413 187.083 31.796 187.083 31.348V31.264C186.411 31.9547 185.562 32.608 184.535 33.224C184.218 31.712 183.891 30.4893 183.555 29.556L183.723 31.236L183.779 31.824L182.407 31.992L181.119 32.16C181.026 28.9493 180.979 26.476 180.979 24.74L183.387 24.6C183.387 25.8693 183.396 26.7747 183.415 27.316C184.684 27.036 185.608 26.4293 186.187 25.496H183.723V23.872L181.063 24.292L181.007 23.704L180.475 23.788V33.028H176.415V24.348C175.426 24.4787 174.38 24.5907 173.279 24.684C173.279 23.004 173.204 21.632 173.055 20.568L174.763 20.512L175.491 19.588C175.099 19.1027 174.66 18.5987 174.175 18.076C173.69 17.5533 173.27 17.1333 172.915 16.816L174.483 12.98C174.875 13.372 175.071 13.568 175.071 13.568C175.519 12.8213 175.939 11.972 176.331 11.02L179.971 12.028C178.832 13.8947 177.983 15.2387 177.423 16.06L177.759 16.452C178.879 14.772 179.868 13.0733 180.727 11.356L184.087 12.504H188.987L189.183 11.86H193.803L193.607 12.504H199.515V25.496H197.331ZM182.827 16.648L183.331 19.756C183.443 20.316 183.574 21.0813 183.723 22.052V13.848L181.791 16.816L182.827 16.648ZM187.951 15.808V16.34L188.959 15.92C189.351 16.1253 189.64 16.312 189.827 16.48C189.976 16.312 190.126 16.088 190.275 15.808H187.951ZM195.343 16.228V15.808H192.543L192.403 16.228H195.343ZM187.951 17.824C188.418 17.6187 188.716 17.4787 188.847 17.404C188.586 17.1987 188.287 16.9933 187.951 16.788V17.824ZM192.655 18.776C192.916 18.5893 193.168 18.3467 193.411 18.048H191.591L192.655 18.776ZM188.931 19.868C188.688 19.5133 188.362 19.1027 187.951 18.636V19.952L188.931 19.868ZM180.503 20.316C180.41 19.7187 180.344 19.2987 180.307 19.056L179.971 19.56C179.896 19.672 179.812 19.7933 179.719 19.924C179.626 20.0547 179.523 20.204 179.411 20.372L180.503 20.316ZM190.331 19.196C190.051 19.4387 189.762 19.6533 189.463 19.84C190.004 19.784 190.462 19.7 190.835 19.588L190.331 19.196ZM194.951 20.736L194.027 21.828H195.343V19.504C195.119 19.784 194.839 20.0827 194.503 20.4L194.951 20.736ZM187.951 21.828H188.651C188.464 21.3427 188.231 20.876 187.951 20.428V21.828ZM193.187 21.296C192.963 21.4267 192.59 21.604 192.067 21.828H193.747L193.187 21.296ZM173.559 24.992C173.914 24.992 174.408 24.9733 175.043 24.936L175.939 24.908V25.86C175.939 27.092 175.92 28.184 175.883 29.136C175.846 30.088 175.752 31.152 175.603 32.328C175.454 32.3093 175.136 32.272 174.651 32.216C174.184 32.1413 173.634 32.104 172.999 32.104C173.242 30.872 173.391 29.7613 173.447 28.772C173.522 27.764 173.559 26.504 173.559 24.992ZM191.171 25.496H187.251C188.147 26.056 188.931 26.4853 189.603 26.784H190.247C190.098 26.5973 189.818 26.2987 189.407 25.888L191.171 25.496ZM194.559 26.168C195.063 25.9627 195.567 25.7387 196.071 25.496H193.719C194.186 25.888 194.466 26.112 194.559 26.168ZM192.459 28.492C192.72 28.4733 192.851 28.3707 192.851 28.184C192.851 28.1653 192.814 27.988 192.739 27.652L191.311 28.044L190.639 27.232L190.499 28.016C190.48 28.072 190.471 28.156 190.471 28.268C190.471 28.4547 190.564 28.548 190.751 28.548C191.722 28.548 192.291 28.5293 192.459 28.492ZM192.935 27.624C193.271 27.68 193.598 27.708 193.915 27.708C194.158 27.708 194.344 27.6987 194.475 27.68L194.307 27.232L192.935 27.624ZM224.715 22.696C225.294 23.0693 225.798 23.3587 226.227 23.564C226.656 23.7693 227.123 23.928 227.627 24.04C227.926 25.5893 228.075 27.036 228.075 28.38C228.075 29.6867 227.926 30.6853 227.627 31.376C227.422 31.8613 227.179 32.216 226.899 32.44C226.619 32.6453 226.376 32.7667 226.171 32.804C225.966 32.8227 225.714 32.832 225.415 32.832H222.643C221.859 32.832 221.252 32.7667 220.823 32.636C220.412 32.4867 220.114 32.244 219.927 31.908C219.759 31.5533 219.675 31.04 219.675 30.368C219.675 30.1813 219.694 29.808 219.731 29.248L220.263 22.78L219.647 22.836C219.572 25.5427 219.414 27.624 219.171 29.08C218.928 30.5173 218.592 31.8613 218.163 33.112C216.408 32.5147 214.971 32.0853 213.851 31.824L212.171 31.992L210.659 32.16C210.547 29.2667 210.491 26.7933 210.491 24.74L213.347 24.6C213.347 26.5973 213.422 28.3427 213.571 29.836C213.944 28.996 214.243 28.0813 214.467 27.092C214.691 26.1027 214.84 24.8427 214.915 23.312L214.411 23.368C214.336 22.416 214.262 21.6227 214.187 20.988C214.112 20.3533 213.982 19.56 213.795 18.608L215.167 18.524L215.979 16.732H213.459V14.24L211.443 16.816L212.675 16.648C213.086 18.44 213.384 19.8493 213.571 20.876C213.776 21.884 213.926 22.8827 214.019 23.872L210.575 24.32L210.519 23.704L209.987 23.788V33.028H205.031V24.348C203.874 24.4787 202.642 24.5907 201.335 24.684C201.335 23.004 201.26 21.632 201.111 20.568L203.099 20.512L203.995 19.588C203.51 19.084 202.978 18.5707 202.399 18.048C201.82 17.5253 201.326 17.1147 200.915 16.816L202.763 12.98L203.491 13.568C203.92 12.9707 204.406 12.1213 204.947 11.02L209.287 12.028L208.811 12.672C207.672 14.2587 206.832 15.388 206.291 16.06L206.655 16.452C207.943 14.772 209.128 13.0733 210.211 11.356L214.019 12.448H217.659V11.412H222.783V12.448H227.739V16.732H225.695C226.703 17.684 227.776 18.5707 228.915 19.392C228.374 19.8213 227.804 20.372 227.207 21.044C226.628 21.716 226.152 22.36 225.779 22.976L225.051 22.276L224.743 22.304L224.715 22.696ZM220.991 16.732L220.347 18.188L221.663 18.104C221.402 17.7307 221.215 17.4507 221.103 17.264L223.147 16.732H220.991ZM209.763 18.972C209.24 19.6067 208.867 20.0733 208.643 20.372L210.015 20.316L209.763 18.972ZM224.351 26.896V26.952C224.351 27.0827 224.379 27.1947 224.435 27.288C224.51 27.3627 224.594 27.4 224.687 27.4C224.78 27.4 224.864 27.3533 224.939 27.26C225.014 27.1667 225.051 27.036 225.051 26.868C225.051 25.9347 224.92 24.7587 224.659 23.34L224.351 26.896ZM201.699 24.992C202.072 24.992 202.651 24.9733 203.435 24.936L204.555 24.908C204.555 26.5693 204.527 27.8947 204.471 28.884C204.434 29.8547 204.303 31.0027 204.079 32.328C203.948 32.3093 203.594 32.272 203.015 32.216C202.455 32.1413 201.783 32.104 200.999 32.104C201.298 30.872 201.484 29.7613 201.559 28.772C201.652 27.7827 201.699 26.5227 201.699 24.992ZM262.017 16.06L261.569 17.264C260.803 19.3173 260.271 20.6893 259.973 21.38C261.205 23.284 261.821 24.9827 261.821 26.476C261.821 28.1747 261.373 29.4813 260.477 30.396C259.599 31.292 258.386 31.7213 256.837 31.684C256.631 29.9667 256.267 28.576 255.745 27.512V32.888H250.509V15.36L249.641 16.62H249.865V20.372H246.477L246.225 20.596L245.861 20.904H249.837V33.056H244.629V32.776H241.549V33.056H236.285V26.728L235.473 27.064C235.305 25.0667 234.922 23.34 234.325 21.884C235.65 21.6787 236.779 21.4733 237.713 21.268C238.646 21.044 239.514 20.7453 240.317 20.372H234.997V16.62H237.993V16.032H235.529V12.224H237.993V11.468H243.677V12.224H246.673V13.204C246.747 13.0547 246.813 12.9147 246.869 12.784C246.943 12.6347 247.009 12.504 247.065 12.392L247.317 11.804L250.509 12.98V11.972H260.589L262.017 16.06ZM243.677 16.032V16.62H244.685L245.105 16.032H243.677ZM255.745 16.704V20.036C256.379 18.7293 256.706 17.6187 256.725 16.704H255.745ZM255.745 26.476C256.006 26.364 256.221 26.196 256.389 25.972C256.557 25.748 256.641 25.4773 256.641 25.16C256.641 24.5253 256.342 23.7973 255.745 22.976V26.476ZM241.549 25.048H244.629V24.32H241.549V25.048ZM241.549 28.184V28.94H244.629V28.184H241.549ZM289.961 21.884V24.936H286.937C287.646 25.3653 288.598 25.7573 289.793 26.112C289.793 28.2027 289.727 29.7333 289.597 30.704C289.485 31.656 289.289 32.2813 289.009 32.58C288.729 32.86 288.299 33 287.721 33C286.694 33 285.751 32.9253 284.893 32.776C284.053 32.608 283.157 32.356 282.205 32.02C281.346 31.7213 280.506 31.3573 279.685 30.928C278.154 31.6747 275.877 32.3933 272.853 33.084C271.621 32.244 270.398 31.5533 269.185 31.012C268.998 31.74 268.662 32.44 268.177 33.112L265.797 32.44C264.117 31.9547 263.053 31.656 262.605 31.544C263.071 31.0213 263.407 30.4707 263.613 29.892C263.837 29.2947 263.977 28.6413 264.033 27.932C264.089 27.2227 264.117 26.224 264.117 24.936H263.025V21.884H274.253C274.085 20.26 274.001 18.0387 274.001 15.22V13.372C274.038 13.3347 273.693 13.736 272.965 14.576L272.237 15.444L273.245 15.332C273.357 17.5533 273.571 19.532 273.889 21.268L271.397 21.576L271.313 20.988C269.39 21.1373 268.111 21.2307 267.477 21.268C265.237 21.4173 263.706 21.5293 262.885 21.604L262.773 18.356C263.743 18.3187 264.583 18.3 265.293 18.3C264.415 17.124 263.594 16.2 262.829 15.528L264.621 12.98L265.125 13.512C265.629 12.84 266.095 12.112 266.525 11.328L269.829 12.476C268.653 13.9507 267.766 15.0147 267.169 15.668L267.505 16.004C268.625 14.6973 269.707 13.372 270.753 12.028L274.001 13.26L274.029 11.44H279.293V13.652L279.769 12.98L280.189 13.456C280.73 12.6907 281.122 12.056 281.365 11.552L284.725 12.336C283.791 13.8667 283.045 15.0333 282.485 15.836L282.821 16.2C283.922 14.576 284.874 13.1107 285.677 11.804L289.345 12.728L287.525 15.472L288.841 15.332C288.915 16.4147 289.279 18.3933 289.933 21.268L287.077 21.576C287.039 21.4453 287.002 21.2493 286.965 20.988L283.913 21.24C284.473 21.4453 284.977 21.66 285.425 21.884H289.961ZM279.293 18.328C279.797 18.328 280.189 18.3187 280.469 18.3L279.293 16.844V18.328ZM271.005 18.16C270.967 17.8987 270.93 17.5067 270.893 16.984C270.65 17.2827 270.519 17.4413 270.501 17.46C270.053 17.964 269.838 18.2067 269.857 18.188C270.379 18.188 270.762 18.1787 271.005 18.16ZM286.489 18.16C286.451 17.936 286.414 17.6187 286.377 17.208L285.705 18.188L286.489 18.16ZM279.461 21.632C279.479 21.688 279.489 21.772 279.489 21.884H281.757L282.177 21.408C281.411 21.4453 280.506 21.52 279.461 21.632ZM275.401 26.336C275.251 26 275.074 25.5333 274.869 24.936H270.417C272.059 25.5893 273.721 26.056 275.401 26.336ZM280.917 25.86C281.477 25.4493 281.869 25.1413 282.093 24.936H280.357C280.506 25.216 280.693 25.524 280.917 25.86ZM285.341 26.7C285.378 26.364 285.415 25.776 285.453 24.936H282.485L285.341 26.7ZM275.625 26.812C275.177 27.2413 274.514 27.9693 273.637 28.996C274.626 28.772 275.569 28.5013 276.465 28.184C276.147 27.736 275.867 27.2787 275.625 26.812ZM284.669 28.184C284.818 28.2587 284.949 28.2213 285.061 28.072C285.173 27.904 285.266 27.5027 285.341 26.868L284.109 27.96L284.669 28.184ZM269.577 28.408C269.539 29.0053 269.502 29.4533 269.465 29.752C270.118 29.6773 270.939 29.5467 271.929 29.36C271.051 29.0613 270.267 28.744 269.577 28.408ZM301.189 10.824C302.962 10.824 304.595 11.1227 306.089 11.72C307.601 12.3173 308.795 13.148 309.673 14.212C310.55 15.276 310.989 16.4987 310.989 17.88C310.989 19 310.718 19.9613 310.177 20.764C309.635 21.5667 308.945 22.22 308.105 22.724L306.621 23.564C305.818 24.012 305.286 24.32 305.025 24.488C304.595 24.7493 304.297 25.0387 304.129 25.356C303.961 25.6733 303.877 26.0467 303.877 26.476H297.465C297.465 25.0573 297.801 23.872 298.473 22.92C299.145 21.9493 300.274 21.1093 301.861 20.4C302.57 20.0827 303.083 19.7373 303.401 19.364C303.737 18.972 303.905 18.5333 303.905 18.048C303.905 17.5067 303.643 17.04 303.121 16.648C302.617 16.256 301.973 16.06 301.189 16.06C300.125 16.06 299.294 16.3213 298.697 16.844C298.118 17.3667 297.829 18.104 297.829 19.056C297.829 19.4293 297.885 19.8587 297.997 20.344C296.503 19.9147 294.273 19.7 291.305 19.7C291.286 19.532 291.277 19.2987 291.277 19C291.277 17.432 291.687 16.032 292.509 14.8C293.349 13.5493 294.515 12.5787 296.009 11.888C297.521 11.1787 299.247 10.824 301.189 10.824ZM303.905 33.56H297.409V28.576H303.905V33.56Z" fill="#334155"/>
<defs>
<radialGradient id="paint0_radial_7016_1100" cx="0" cy="0" r="1" gradientUnits="userSpaceOnUse" gradientTransform="translate(-2.24648 4) rotate(44.561) scale(28.5938 45.777)">
<stop stop-color="#FBFFD1"/>
<stop offset="1" stop-color="#D5009C"/>
</radialGradient>
<radialGradient id="paint1_radial_7016_1100" cx="0" cy="0" r="1" gradientUnits="userSpaceOnUse" gradientTransform="translate(38.0352 20.5775) rotate(18.0761) scale(23.4681 37.571)">
<stop stop-color="#FF41CD"/>
<stop offset="1" stop-color="#D4009C" stop-opacity="0"/>
</radialGradient>
</defs>
</svg>
