<svg width="313" height="41" viewBox="0 0 313 41" fill="none" xmlns="http://www.w3.org/2000/svg">
<path fill-rule="evenodd" clip-rule="evenodd" d="M12.8944 37C15.3465 37 17.6323 36.052 19.5563 34.4163C21.4803 36.052 23.7662 37 26.2183 37C28.9739 37 31.5194 35.8029 33.5775 33.778C35.6355 35.8029 38.1811 37 40.9366 37C47.7818 37 53.331 29.6127 53.331 20.5C53.331 11.3873 47.7818 4 40.9366 4C38.1811 4 35.6355 5.1971 33.5775 7.22196C31.5194 5.1971 28.9739 4 26.2183 4C23.7662 4 21.4803 4.94799 19.5563 6.5837C17.6323 4.94799 15.3465 4 12.8944 4C6.04915 4 0.5 11.3873 0.5 20.5C0.5 29.6127 6.04915 37 12.8944 37Z" fill="url(#paint0_radial_4847_6798)"/>
<path fill-rule="evenodd" clip-rule="evenodd" d="M12.8944 37C15.3465 37 17.6323 36.052 19.5563 34.4163C21.4803 36.052 23.7662 37 26.2183 37C28.9739 37 31.5194 35.8029 33.5775 33.778C35.6355 35.8029 38.1811 37 40.9366 37C47.7818 37 53.331 29.6127 53.331 20.5C53.331 11.3873 47.7818 4 40.9366 4C38.1811 4 35.6355 5.1971 33.5775 7.22196C31.5194 5.1971 28.9739 4 26.2183 4C23.7662 4 21.4803 4.94799 19.5563 6.5837C17.6323 4.94799 15.3465 4 12.8944 4C6.04915 4 0.5 11.3873 0.5 20.5C0.5 29.6127 6.04915 37 12.8944 37Z" fill="url(#paint1_radial_4847_6798)"/>
<path d="M10.7363 21.112L10.5361 21.8557L11.2886 22.0571L11.1445 21.5071L10.7363 21.112ZM14.4905 21.5071L14.3464 22.0571L15.0988 21.8557L14.8987 21.112L14.4905 21.5071ZM11.1445 19.6479L10.7363 20.043L10.8883 20.5775L11.1445 19.6479Z" fill="white"/>
<path d="M10.8884 20.5775L10.7363 21.112L11.1446 21.5071L10.8884 20.5775Z" fill="white"/>
<path d="M10.7359 20.0431L10.1836 20.5776L10.7359 21.1121L10.888 20.5776L10.7359 20.0431ZM11.8566 22.1966L12.2648 22.5917L12.8171 22.4445L11.8566 22.1966ZM13.3695 22.5917L14.1379 22.7853L14.346 22.0572L13.7777 22.1966L13.3695 22.5917Z" fill="white"/>
<path d="M13.7775 22.1965L14.3459 22.0571L14.49 21.5071L13.7775 22.1965ZM11.2881 22.0571L11.4962 22.7853L12.2647 22.5916L11.8564 22.1965L11.2881 22.0571ZM12.817 22.4444L13.3693 22.5916L13.7775 22.1965L12.817 22.4444Z" fill="white"/>
<path d="M12.2651 22.5916L12.8175 23.1261L13.3698 22.5916L12.8175 22.4444L12.2651 22.5916ZM11.2886 19.0979L10.5361 19.2993L10.7363 20.043L11.1445 19.6479L11.2886 19.0979ZM11.1445 21.5071L11.2886 22.0571L11.8569 22.1965L11.1445 21.5071ZM14.7466 20.5775L14.8987 20.043L14.4905 19.6479L14.7466 20.5775Z" fill="white"/>
<path d="M11.8569 18.9586L11.2886 19.0981L11.1445 19.6481L11.8569 18.9586ZM14.4905 19.6481L14.3464 19.0981L13.7781 18.9586L14.4905 19.6481ZM14.8987 21.1121L15.4511 20.5776L14.8987 20.0431L14.7466 20.5776L14.8987 21.1121Z" fill="white"/>
<path d="M14.4908 19.648L13.7784 18.9586L12.8178 18.7107L11.8572 18.9586L11.1448 19.648L10.8887 20.5776L11.1448 21.5072L11.8572 22.1966L12.8178 22.4445L13.7784 22.1966L14.4908 21.5072L14.7469 20.5776L14.4908 19.648Z" fill="white"/>
<path d="M14.49 21.5071L14.8982 21.112L14.7461 20.5775L14.49 21.5071ZM14.8982 20.043L15.0983 19.2993L14.3459 19.0979L14.49 19.6479L14.8982 20.043ZM14.3459 19.0979L14.1378 18.3698L13.3693 18.5634L13.7775 18.9585L14.3459 19.0979ZM12.2647 18.5634L11.4962 18.3698L11.2881 19.0979L11.8564 18.9585L12.2647 18.5634ZM12.817 18.7106L12.2647 18.5634L11.8564 18.9585L12.817 18.7106Z" fill="white"/>
<path d="M13.3703 18.5636L12.8179 18.0291L12.2656 18.5636L12.8179 18.7107L13.3703 18.5636Z" fill="white"/>
<path d="M13.7777 18.9585L13.3695 18.5635L12.8171 18.7107L13.7777 18.9585ZM12.2648 22.5917L11.4964 22.7853L11.8566 24.0712L12.8171 23.1262L12.2648 22.5917ZM11.8566 24.0712L12.8171 27.5494L13.7777 24.0712L12.8171 23.1262L11.8566 24.0712ZM11.2882 22.0571L10.5358 21.8557L10.1836 23.1262L11.4964 22.7853L11.2882 22.0571Z" fill="white"/>
<path d="M10.1843 23.1261L9.22378 26.6198L11.8573 24.0712L11.4971 22.7853L10.1843 23.1261ZM9.22378 21.5071L6.57422 24.0712L10.1843 23.1261L10.5365 21.8557L9.22378 21.5071Z" fill="white"/>
<path d="M10.7365 21.112L10.1842 20.5775L9.22363 21.5071L10.5364 21.8557L10.7365 21.112ZM10.7365 20.043L10.5364 19.2993L9.22363 19.6479L10.1842 20.5775L10.7365 20.043Z" fill="white"/>
<path d="M9.2234 19.6479L5.61328 20.5775L9.2234 21.5071L10.184 20.5775L9.2234 19.6479ZM16.4276 21.5071L15.0989 21.8557L15.4511 23.1261L19.0612 24.0712L16.4276 21.5071Z" fill="white"/>
<path d="M14.3463 22.0571L14.1382 22.7853L15.4509 23.1261L15.0987 21.8557L14.3463 22.0571ZM13.3697 22.5916L12.8174 23.1261L13.7779 24.0712L14.1382 22.7853L13.3697 22.5916ZM14.8986 21.112L15.0987 21.8557L16.4275 21.5071L15.4509 20.5775L14.8986 21.112Z" fill="white"/>
<path d="M13.7783 24.0713L16.4279 26.6199L15.4513 23.1262L14.1385 22.7854L13.7783 24.0713ZM14.3467 19.0981L15.0991 19.2995L15.4513 18.0291L14.1385 18.3699L14.3467 19.0981Z" fill="white"/>
<path d="M16.4279 19.648L19.0614 17.0994L15.4513 18.0289L15.0991 19.2994L16.4279 19.648ZM15.4513 18.0289L16.4279 14.5353L13.7783 17.0994L14.1385 18.3698L15.4513 18.0289ZM16.4279 21.5071L20.022 20.5775L16.4279 19.648L15.4513 20.5775L16.4279 21.5071Z" fill="white"/>
<path d="M14.899 20.043L15.4513 20.5775L16.4279 19.648L15.0991 19.2994L14.899 20.043ZM11.8572 17.0994L9.22363 14.5353L10.1842 18.0289L11.497 18.3698L11.8572 17.0994Z" fill="white"/>
<path d="M11.2882 19.0981L11.4964 18.3699L10.1836 18.0291L10.5358 19.2995L11.2882 19.0981Z" fill="white"/>
<path d="M10.1843 18.0289L6.57422 17.0994L9.22378 19.648L10.5365 19.2994L10.1843 18.0289ZM13.3702 18.5635L14.1387 18.3698L13.7785 17.0994L12.8179 18.0289L13.3702 18.5635Z" fill="white"/>
<path d="M13.7776 17.0994L12.817 13.6057L11.8564 17.0994L12.817 18.029L13.7776 17.0994Z" fill="white"/>
<path d="M12.2645 18.5635L12.8169 18.0289L11.8563 17.0994L11.4961 18.3698L12.2645 18.5635Z" fill="white"/>
<path d="M12.817 24.5359C15.076 24.5359 16.9074 22.7637 16.9074 20.5775C16.9074 18.3913 15.076 16.619 12.817 16.619C10.5579 16.619 8.72656 18.3913 8.72656 20.5775C8.72656 22.7637 10.5579 24.5359 12.817 24.5359Z" fill="#FE00BA"/>
<path d="M12.8181 24.0712C14.8119 24.0712 16.4283 22.507 16.4283 20.5775C16.4283 18.648 14.8119 17.0839 12.8181 17.0839C10.8243 17.0839 9.20801 18.648 9.20801 20.5775C9.20801 22.507 10.8243 24.0712 12.8181 24.0712Z" fill="white"/>
<path d="M34.3618 20.5174C34.3618 22.6846 33.6992 24.6304 32.6481 26.0249C31.5972 27.4192 30.1772 28.2428 28.6438 28.2428C27.1104 28.2428 25.6905 27.4192 24.6395 26.0249C23.5884 24.6304 22.9258 22.6846 22.9258 20.5174C22.9258 18.3502 23.5884 16.4045 24.6395 15.0099C25.6905 13.6156 27.1104 12.792 28.6438 12.792C30.1772 12.792 31.5972 13.6156 32.6481 15.0099C33.6992 16.4045 34.3618 18.3502 34.3618 20.5174Z" stroke="white" stroke-width="0.851618"/>
<mask id="mask0_4847_6798" style="mask-type:alpha" maskUnits="userSpaceOnUse" x="22" y="12" width="13" height="17">
<ellipse cx="28.6438" cy="20.5174" rx="6.14382" ry="8.1512" fill="white"/>
</mask>
<g mask="url(#mask0_4847_6798)">
<ellipse cx="32.1717" cy="20.5174" rx="5.17458" ry="6.86529" fill="white"/>
</g>
<path d="M47.7925 20.5174C47.7925 22.6846 47.1299 24.6304 46.0788 26.0249C45.0278 27.4192 43.6079 28.2428 42.0745 28.2428C40.5411 28.2428 39.1211 27.4192 38.0702 26.0249C37.0191 24.6304 36.3565 22.6846 36.3565 20.5174C36.3565 18.3502 37.0191 16.4045 38.0702 15.0099C39.1211 13.6156 40.5411 12.792 42.0745 12.792C43.6079 12.792 45.0278 13.6156 46.0788 15.0099C47.1299 16.4045 47.7925 18.3502 47.7925 20.5174Z" stroke="white" stroke-width="0.851618"/>
<mask id="mask1_4847_6798" style="mask-type:alpha" maskUnits="userSpaceOnUse" x="35" y="12" width="14" height="17">
<ellipse cx="42.0745" cy="20.5174" rx="6.14382" ry="8.1512" fill="white"/>
</mask>
<g mask="url(#mask1_4847_6798)">
<ellipse cx="45.6023" cy="20.5174" rx="5.17458" ry="6.86529" fill="white"/>
</g>
<path d="M89.2191 18.272C88.2297 19.0933 87.0817 20.456 85.7751 22.36H87.1471V33H80.3991V32.58H70.2631V33H63.5151V22.36H83.2831L81.9671 20.96L62.6191 21.94C62.5817 21.604 62.5444 21.3427 62.5071 21.156C62.2644 19.14 62.0031 17.5627 61.7231 16.424L65.4751 16.34L68.4431 11.412L76.1151 11.888L73.6791 16.172L78.0191 16.06C77.3657 15.1453 76.7031 14.044 76.0311 12.756L82.1071 11.468C83.2271 13.0547 84.4124 14.408 85.6631 15.528C86.9137 16.648 88.0991 17.5627 89.2191 18.272ZM70.2631 26.56V27.848H80.3991V26.56H70.2631ZM103.555 27.904H116.715C116.715 28.7253 116.678 29.4813 116.603 30.172C116.528 31.1987 116.006 31.9267 115.035 32.356C114.064 32.7667 112.664 32.972 110.835 32.972H106.047H102.939C102.808 32.356 102.594 31.7867 102.295 31.264C99.9617 30.9467 97.8711 30.7787 96.0231 30.76C96.6951 29.0427 97.1524 27.4933 97.3951 26.112H109.099V25.776H96.5831V24.572L96.4151 25.44C95.6684 29.2293 95.1364 31.7773 94.8191 33.084C92.3924 32.4867 90.5351 32.0853 89.2471 31.88C89.8257 30.2747 90.3017 28.7347 90.6751 27.26C91.0484 25.7667 91.4124 24.152 91.7671 22.416L93.6711 22.724C92.4951 22.0893 91.1044 21.5573 89.4991 21.128L92.1031 16.844C92.9991 17.1053 94.1377 17.572 95.5191 18.244L96.4431 18.664C96.4431 18.0853 96.3964 17.404 96.3031 16.62L97.4791 16.564L97.8991 16.116C97.5631 15.7427 97.1711 15.3413 96.7231 14.912L95.4351 17.6C93.4937 16.704 91.4777 16.0507 89.3871 15.64L91.7671 11.16C92.5884 11.3653 93.7924 11.7947 95.3791 12.448L96.8071 13.008L97.1991 12.168L97.5631 12.504C97.8991 11.9813 98.1604 11.4867 98.3471 11.02L100.531 11.636L98.9911 13.932L99.3271 14.296C100.018 13.344 100.652 12.3173 101.231 11.216L102.995 11.776H110.331V13.288H102.995V12.56L102.519 13.232C102.276 13.624 102.015 14.0067 101.735 14.38L102.435 14.268C102.491 14.772 102.556 15.276 102.631 15.78C102.724 16.284 102.79 16.648 102.827 16.872C102.976 17.7307 103.07 18.3187 103.107 18.636L101.539 18.86L101.483 18.384L101.063 18.468L100.951 23.508H98.2631L98.3471 18.832L97.0591 18.972L96.8351 19.392L97.8991 19.364V20.26C97.8991 21.3427 97.8431 22.4067 97.7311 23.452C97.5817 23.4333 97.4324 23.4147 97.2831 23.396C97.1524 23.3773 96.9937 23.368 96.8071 23.368L96.7231 23.816H116.043V27.624H103.611L103.555 27.904ZM110.443 13.736L111.171 12.168L111.535 12.504C111.871 11.9813 112.132 11.4867 112.319 11.02L114.503 11.636C113.812 12.6813 113.299 13.4373 112.963 13.904L113.299 14.296C113.99 13.3813 114.634 12.3547 115.231 11.216L117.023 12.168L115.511 14.408L116.407 14.268C116.575 15.668 116.762 16.9093 116.967 17.992L117.079 18.636L115.511 18.86L115.455 18.384L115.035 18.468L114.923 23.508H112.235L112.319 18.832C112.132 18.8507 111.47 18.916 110.331 19.028C110.331 18.076 110.275 17.2733 110.163 16.62L111.479 16.564L111.871 16.144C111.498 15.696 111.04 15.22 110.499 14.716V15.388H102.883V13.736H110.443ZM114.951 15.248L114.167 16.48C114.428 16.48 114.746 16.4613 115.119 16.424L114.951 15.248ZM100.251 16.48L101.147 16.424C101.128 16.2187 101.082 15.892 101.007 15.444L100.251 16.48ZM103.415 15.892H109.883V17.432H103.415V15.892ZM109.883 19.392H103.415V17.88H109.883V19.392ZM101.427 23.368C101.371 21.7067 101.343 20.344 101.343 19.28L102.771 19.196C102.771 20.876 102.79 22.2107 102.827 23.2C102.584 23.256 102.118 23.312 101.427 23.368ZM116.715 19.196C116.715 19.9427 116.734 20.5867 116.771 21.128C116.808 21.6507 116.874 22.332 116.967 23.172C116.071 23.284 115.548 23.3493 115.399 23.368C115.343 21.7067 115.315 20.344 115.315 19.28L116.715 19.196ZM110.387 23.34C110.518 22.1453 110.583 20.8293 110.583 19.392L111.871 19.364V20.26C111.871 21.3427 111.815 22.4067 111.703 23.452C110.956 23.3773 110.518 23.34 110.387 23.34ZM94.7911 22.92L96.3031 23.172C96.4337 22.5187 96.5177 21.9493 96.5551 21.464C96.5924 20.9787 96.6111 20.4093 96.6111 19.756L94.7911 22.92ZM110.079 23.508H103.219V19.868H110.079V23.508ZM107.391 21.408H105.907V22.08H107.391V21.408ZM103.023 29.696L102.911 30.004C104.61 30.06 106.654 30.088 109.043 30.088C109.454 30.088 109.734 30.0693 109.883 30.032C110.051 29.976 110.144 29.864 110.163 29.696H103.023ZM137.491 28.884V29.276H144.407V32.776H124.051V29.808C123.883 31.0773 123.622 32.216 123.267 33.224C121.942 32.5707 120.859 32.0667 120.019 31.712C119.179 31.3573 118.283 31.096 117.331 30.928C117.704 29.92 117.984 28.94 118.171 27.988C118.358 27.0173 118.488 25.7293 118.563 24.124C118.656 22.5187 118.703 20.2507 118.703 17.32V12.056L144.379 12.084L144.407 16.536H124.555C124.536 16.704 124.527 16.844 124.527 16.956C124.546 17.0493 124.555 17.1427 124.555 17.236V18.636C124.555 19.9427 124.536 21.492 124.499 23.284C125.096 23.172 125.544 23.0507 125.843 22.92C126.16 22.7893 126.412 22.612 126.599 22.388H124.919V19.868H127.103V19.56H125.199C125.218 18.776 125.124 17.9453 124.919 17.068H126.039C128.13 17.068 130.659 17.0027 133.627 16.872C133.44 17.8053 133.347 18.636 133.347 19.364L131.499 19.448V19.868H133.627V22.388H131.667C132.414 22.78 133.282 23.032 134.271 23.144L134.019 23.368C134.486 23.256 134.878 23.1347 135.195 23.004C135.531 22.8547 135.83 22.6493 136.091 22.388H134.103V19.868H136.399V19.56H134.187C134.206 18.7387 134.103 17.908 133.879 17.068H135.139C137.454 17.068 140.244 17.0027 143.511 16.872C143.306 17.7493 143.203 18.58 143.203 19.364L140.963 19.448V19.868H143.511V22.388H141.271C141.962 22.836 142.895 23.1627 144.071 23.368C143.548 24.0773 143.184 25.1133 142.979 26.476C142.064 26.14 141.392 25.5333 140.963 24.656V26.364H137.491V26.784H143.483V28.884H137.491ZM124.471 23.816C124.415 25.832 124.294 27.652 124.107 29.276H125.479V26.672H131.107V29.276H131.891V26.028H132.731C132.246 25.7667 131.835 25.5053 131.499 25.244V26.364H127.103V25.02C126.711 25.692 126.17 26.1773 125.479 26.476C125.404 25.9347 125.292 25.4587 125.143 25.048C124.994 24.6187 124.77 24.208 124.471 23.816ZM134.355 26.028C134.075 25.468 133.739 24.9173 133.347 24.376C133.16 24.768 132.974 25.3187 132.787 26.028H134.355ZM136.399 24.712C136.138 25.1413 135.718 25.58 135.139 26.028H136.399V24.712ZM172.491 25.048V30.368H164.511V33.14H158.379V30.368H146.171V25.048H149.811V22.892C149.438 23.284 149.036 23.6573 148.607 24.012C148.14 22.6307 147.692 21.4453 147.263 20.456C146.852 19.448 146.358 18.4867 145.779 17.572C146.731 16.9373 147.487 16.0787 148.047 14.996C148.626 13.9133 148.924 12.6907 148.943 11.328L155.271 11.384C155.234 11.8133 155.178 12.2707 155.103 12.756H171.427V17.796H164.511V19H170.671V23.452H164.511V25.048H172.491ZM158.379 17.796H153.479L152.835 19H158.379V17.796ZM155.831 23.452V25.048H158.379V23.452H155.831ZM197.831 25.496C198.204 26.0747 198.68 26.5227 199.259 26.84C199.838 27.1573 200.556 27.3627 201.415 27.456C201.004 28.24 200.65 29.0707 200.351 29.948C200.071 30.8067 199.782 31.8987 199.483 33.224C198.438 32.5893 197.504 31.74 196.683 30.676C196.702 30.7693 196.711 30.9 196.711 31.068C196.711 32.1133 196.188 32.692 195.143 32.804C194.042 32.8787 193.034 32.916 192.119 32.916C191.167 32.916 190.252 32.8787 189.375 32.804C188.759 32.748 188.302 32.608 188.003 32.384C187.723 32.1413 187.583 31.796 187.583 31.348V31.264C186.911 31.9547 186.062 32.608 185.035 33.224C184.718 31.712 184.391 30.4893 184.055 29.556L184.223 31.236L184.279 31.824L182.907 31.992L181.619 32.16C181.526 28.9493 181.479 26.476 181.479 24.74L183.887 24.6C183.887 25.8693 183.896 26.7747 183.915 27.316C185.184 27.036 186.108 26.4293 186.687 25.496H184.223V23.872L181.563 24.292L181.507 23.704L180.975 23.788V33.028H176.915V24.348C175.926 24.4787 174.88 24.5907 173.779 24.684C173.779 23.004 173.704 21.632 173.555 20.568L175.263 20.512L175.991 19.588C175.599 19.1027 175.16 18.5987 174.675 18.076C174.19 17.5533 173.77 17.1333 173.415 16.816L174.983 12.98C175.375 13.372 175.571 13.568 175.571 13.568C176.019 12.8213 176.439 11.972 176.831 11.02L180.471 12.028C179.332 13.8947 178.483 15.2387 177.923 16.06L178.259 16.452C179.379 14.772 180.368 13.0733 181.227 11.356L184.587 12.504H189.487L189.683 11.86H194.303L194.107 12.504H200.015V25.496H197.831ZM183.327 16.648L183.831 19.756C183.943 20.316 184.074 21.0813 184.223 22.052V13.848L182.291 16.816L183.327 16.648ZM188.451 15.808V16.34L189.459 15.92C189.851 16.1253 190.14 16.312 190.327 16.48C190.476 16.312 190.626 16.088 190.775 15.808H188.451ZM195.843 16.228V15.808H193.043L192.903 16.228H195.843ZM188.451 17.824C188.918 17.6187 189.216 17.4787 189.347 17.404C189.086 17.1987 188.787 16.9933 188.451 16.788V17.824ZM193.155 18.776C193.416 18.5893 193.668 18.3467 193.911 18.048H192.091L193.155 18.776ZM189.431 19.868C189.188 19.5133 188.862 19.1027 188.451 18.636V19.952L189.431 19.868ZM181.003 20.316C180.91 19.7187 180.844 19.2987 180.807 19.056L180.471 19.56C180.396 19.672 180.312 19.7933 180.219 19.924C180.126 20.0547 180.023 20.204 179.911 20.372L181.003 20.316ZM190.831 19.196C190.551 19.4387 190.262 19.6533 189.963 19.84C190.504 19.784 190.962 19.7 191.335 19.588L190.831 19.196ZM195.451 20.736L194.527 21.828H195.843V19.504C195.619 19.784 195.339 20.0827 195.003 20.4L195.451 20.736ZM188.451 21.828H189.151C188.964 21.3427 188.731 20.876 188.451 20.428V21.828ZM193.687 21.296C193.463 21.4267 193.09 21.604 192.567 21.828H194.247L193.687 21.296ZM174.059 24.992C174.414 24.992 174.908 24.9733 175.543 24.936L176.439 24.908V25.86C176.439 27.092 176.42 28.184 176.383 29.136C176.346 30.088 176.252 31.152 176.103 32.328C175.954 32.3093 175.636 32.272 175.151 32.216C174.684 32.1413 174.134 32.104 173.499 32.104C173.742 30.872 173.891 29.7613 173.947 28.772C174.022 27.764 174.059 26.504 174.059 24.992ZM191.671 25.496H187.751C188.647 26.056 189.431 26.4853 190.103 26.784H190.747C190.598 26.5973 190.318 26.2987 189.907 25.888L191.671 25.496ZM195.059 26.168C195.563 25.9627 196.067 25.7387 196.571 25.496H194.219C194.686 25.888 194.966 26.112 195.059 26.168ZM192.959 28.492C193.22 28.4733 193.351 28.3707 193.351 28.184C193.351 28.1653 193.314 27.988 193.239 27.652L191.811 28.044L191.139 27.232L190.999 28.016C190.98 28.072 190.971 28.156 190.971 28.268C190.971 28.4547 191.064 28.548 191.251 28.548C192.222 28.548 192.791 28.5293 192.959 28.492ZM193.435 27.624C193.771 27.68 194.098 27.708 194.415 27.708C194.658 27.708 194.844 27.6987 194.975 27.68L194.807 27.232L193.435 27.624ZM225.215 22.696C225.794 23.0693 226.298 23.3587 226.727 23.564C227.156 23.7693 227.623 23.928 228.127 24.04C228.426 25.5893 228.575 27.036 228.575 28.38C228.575 29.6867 228.426 30.6853 228.127 31.376C227.922 31.8613 227.679 32.216 227.399 32.44C227.119 32.6453 226.876 32.7667 226.671 32.804C226.466 32.8227 226.214 32.832 225.915 32.832H223.143C222.359 32.832 221.752 32.7667 221.323 32.636C220.912 32.4867 220.614 32.244 220.427 31.908C220.259 31.5533 220.175 31.04 220.175 30.368C220.175 30.1813 220.194 29.808 220.231 29.248L220.763 22.78L220.147 22.836C220.072 25.5427 219.914 27.624 219.671 29.08C219.428 30.5173 219.092 31.8613 218.663 33.112C216.908 32.5147 215.471 32.0853 214.351 31.824L212.671 31.992L211.159 32.16C211.047 29.2667 210.991 26.7933 210.991 24.74L213.847 24.6C213.847 26.5973 213.922 28.3427 214.071 29.836C214.444 28.996 214.743 28.0813 214.967 27.092C215.191 26.1027 215.34 24.8427 215.415 23.312L214.911 23.368C214.836 22.416 214.762 21.6227 214.687 20.988C214.612 20.3533 214.482 19.56 214.295 18.608L215.667 18.524L216.479 16.732H213.959V14.24L211.943 16.816L213.175 16.648C213.586 18.44 213.884 19.8493 214.071 20.876C214.276 21.884 214.426 22.8827 214.519 23.872L211.075 24.32L211.019 23.704L210.487 23.788V33.028H205.531V24.348C204.374 24.4787 203.142 24.5907 201.835 24.684C201.835 23.004 201.76 21.632 201.611 20.568L203.599 20.512L204.495 19.588C204.01 19.084 203.478 18.5707 202.899 18.048C202.32 17.5253 201.826 17.1147 201.415 16.816L203.263 12.98L203.991 13.568C204.42 12.9707 204.906 12.1213 205.447 11.02L209.787 12.028L209.311 12.672C208.172 14.2587 207.332 15.388 206.791 16.06L207.155 16.452C208.443 14.772 209.628 13.0733 210.711 11.356L214.519 12.448H218.159V11.412H223.283V12.448H228.239V16.732H226.195C227.203 17.684 228.276 18.5707 229.415 19.392C228.874 19.8213 228.304 20.372 227.707 21.044C227.128 21.716 226.652 22.36 226.279 22.976L225.551 22.276L225.243 22.304L225.215 22.696ZM221.491 16.732L220.847 18.188L222.163 18.104C221.902 17.7307 221.715 17.4507 221.603 17.264L223.647 16.732H221.491ZM210.263 18.972C209.74 19.6067 209.367 20.0733 209.143 20.372L210.515 20.316L210.263 18.972ZM224.851 26.896V26.952C224.851 27.0827 224.879 27.1947 224.935 27.288C225.01 27.3627 225.094 27.4 225.187 27.4C225.28 27.4 225.364 27.3533 225.439 27.26C225.514 27.1667 225.551 27.036 225.551 26.868C225.551 25.9347 225.42 24.7587 225.159 23.34L224.851 26.896ZM202.199 24.992C202.572 24.992 203.151 24.9733 203.935 24.936L205.055 24.908C205.055 26.5693 205.027 27.8947 204.971 28.884C204.934 29.8547 204.803 31.0027 204.579 32.328C204.448 32.3093 204.094 32.272 203.515 32.216C202.955 32.1413 202.283 32.104 201.499 32.104C201.798 30.872 201.984 29.7613 202.059 28.772C202.152 27.7827 202.199 26.5227 202.199 24.992ZM262.517 16.06L262.069 17.264C261.303 19.3173 260.771 20.6893 260.473 21.38C261.705 23.284 262.321 24.9827 262.321 26.476C262.321 28.1747 261.873 29.4813 260.977 30.396C260.099 31.292 258.886 31.7213 257.337 31.684C257.131 29.9667 256.767 28.576 256.245 27.512V32.888H251.009V15.36L250.141 16.62H250.365V20.372H246.977L246.725 20.596L246.361 20.904H250.337V33.056H245.129V32.776H242.049V33.056H236.785V26.728L235.973 27.064C235.805 25.0667 235.422 23.34 234.825 21.884C236.15 21.6787 237.279 21.4733 238.213 21.268C239.146 21.044 240.014 20.7453 240.817 20.372H235.497V16.62H238.493V16.032H236.029V12.224H238.493V11.468H244.177V12.224H247.173V13.204C247.247 13.0547 247.313 12.9147 247.369 12.784C247.443 12.6347 247.509 12.504 247.565 12.392L247.817 11.804L251.009 12.98V11.972H261.089L262.517 16.06ZM244.177 16.032V16.62H245.185L245.605 16.032H244.177ZM256.245 16.704V20.036C256.879 18.7293 257.206 17.6187 257.225 16.704H256.245ZM256.245 26.476C256.506 26.364 256.721 26.196 256.889 25.972C257.057 25.748 257.141 25.4773 257.141 25.16C257.141 24.5253 256.842 23.7973 256.245 22.976V26.476ZM242.049 25.048H245.129V24.32H242.049V25.048ZM242.049 28.184V28.94H245.129V28.184H242.049ZM290.461 21.884V24.936H287.437C288.146 25.3653 289.098 25.7573 290.293 26.112C290.293 28.2027 290.227 29.7333 290.097 30.704C289.985 31.656 289.789 32.2813 289.509 32.58C289.229 32.86 288.799 33 288.221 33C287.194 33 286.251 32.9253 285.393 32.776C284.553 32.608 283.657 32.356 282.705 32.02C281.846 31.7213 281.006 31.3573 280.185 30.928C278.654 31.6747 276.377 32.3933 273.353 33.084C272.121 32.244 270.898 31.5533 269.685 31.012C269.498 31.74 269.162 32.44 268.677 33.112L266.297 32.44C264.617 31.9547 263.553 31.656 263.105 31.544C263.571 31.0213 263.907 30.4707 264.113 29.892C264.337 29.2947 264.477 28.6413 264.533 27.932C264.589 27.2227 264.617 26.224 264.617 24.936H263.525V21.884H274.753C274.585 20.26 274.501 18.0387 274.501 15.22V13.372C274.538 13.3347 274.193 13.736 273.465 14.576L272.737 15.444L273.745 15.332C273.857 17.5533 274.071 19.532 274.389 21.268L271.897 21.576L271.813 20.988C269.89 21.1373 268.611 21.2307 267.977 21.268C265.737 21.4173 264.206 21.5293 263.385 21.604L263.273 18.356C264.243 18.3187 265.083 18.3 265.793 18.3C264.915 17.124 264.094 16.2 263.329 15.528L265.121 12.98L265.625 13.512C266.129 12.84 266.595 12.112 267.025 11.328L270.329 12.476C269.153 13.9507 268.266 15.0147 267.669 15.668L268.005 16.004C269.125 14.6973 270.207 13.372 271.253 12.028L274.501 13.26L274.529 11.44H279.793V13.652L280.269 12.98L280.689 13.456C281.23 12.6907 281.622 12.056 281.865 11.552L285.225 12.336C284.291 13.8667 283.545 15.0333 282.985 15.836L283.321 16.2C284.422 14.576 285.374 13.1107 286.177 11.804L289.845 12.728L288.025 15.472L289.341 15.332C289.415 16.4147 289.779 18.3933 290.433 21.268L287.577 21.576C287.539 21.4453 287.502 21.2493 287.465 20.988L284.413 21.24C284.973 21.4453 285.477 21.66 285.925 21.884H290.461ZM279.793 18.328C280.297 18.328 280.689 18.3187 280.969 18.3L279.793 16.844V18.328ZM271.505 18.16C271.467 17.8987 271.43 17.5067 271.393 16.984C271.15 17.2827 271.019 17.4413 271.001 17.46C270.553 17.964 270.338 18.2067 270.357 18.188C270.879 18.188 271.262 18.1787 271.505 18.16ZM286.989 18.16C286.951 17.936 286.914 17.6187 286.877 17.208L286.205 18.188L286.989 18.16ZM279.961 21.632C279.979 21.688 279.989 21.772 279.989 21.884H282.257L282.677 21.408C281.911 21.4453 281.006 21.52 279.961 21.632ZM275.901 26.336C275.751 26 275.574 25.5333 275.369 24.936H270.917C272.559 25.5893 274.221 26.056 275.901 26.336ZM281.417 25.86C281.977 25.4493 282.369 25.1413 282.593 24.936H280.857C281.006 25.216 281.193 25.524 281.417 25.86ZM285.841 26.7C285.878 26.364 285.915 25.776 285.953 24.936H282.985L285.841 26.7ZM276.125 26.812C275.677 27.2413 275.014 27.9693 274.137 28.996C275.126 28.772 276.069 28.5013 276.965 28.184C276.647 27.736 276.367 27.2787 276.125 26.812ZM285.169 28.184C285.318 28.2587 285.449 28.2213 285.561 28.072C285.673 27.904 285.766 27.5027 285.841 26.868L284.609 27.96L285.169 28.184ZM270.077 28.408C270.039 29.0053 270.002 29.4533 269.965 29.752C270.618 29.6773 271.439 29.5467 272.429 29.36C271.551 29.0613 270.767 28.744 270.077 28.408ZM301.689 10.824C303.462 10.824 305.095 11.1227 306.589 11.72C308.101 12.3173 309.295 13.148 310.173 14.212C311.05 15.276 311.489 16.4987 311.489 17.88C311.489 19 311.218 19.9613 310.677 20.764C310.135 21.5667 309.445 22.22 308.605 22.724L307.121 23.564C306.318 24.012 305.786 24.32 305.525 24.488C305.095 24.7493 304.797 25.0387 304.629 25.356C304.461 25.6733 304.377 26.0467 304.377 26.476H297.965C297.965 25.0573 298.301 23.872 298.973 22.92C299.645 21.9493 300.774 21.1093 302.361 20.4C303.07 20.0827 303.583 19.7373 303.901 19.364C304.237 18.972 304.405 18.5333 304.405 18.048C304.405 17.5067 304.143 17.04 303.621 16.648C303.117 16.256 302.473 16.06 301.689 16.06C300.625 16.06 299.794 16.3213 299.197 16.844C298.618 17.3667 298.329 18.104 298.329 19.056C298.329 19.4293 298.385 19.8587 298.497 20.344C297.003 19.9147 294.773 19.7 291.805 19.7C291.786 19.532 291.777 19.2987 291.777 19C291.777 17.432 292.187 16.032 293.009 14.8C293.849 13.5493 295.015 12.5787 296.509 11.888C298.021 11.1787 299.747 10.824 301.689 10.824ZM304.405 33.56H297.909V28.576H304.405V33.56Z" fill="primary"/>
<defs>
<radialGradient id="paint0_radial_4847_6798" cx="0" cy="0" r="1" gradientUnits="userSpaceOnUse" gradientTransform="translate(-1.74648 4) rotate(44.561) scale(28.5938 45.777)">
<stop stop-color="#FBFFD1"/>
<stop offset="1" stop-color="#D5009C"/>
</radialGradient>
<radialGradient id="paint1_radial_4847_6798" cx="0" cy="0" r="1" gradientUnits="userSpaceOnUse" gradientTransform="translate(38.5352 20.5775) rotate(18.0761) scale(23.4681 37.571)">
<stop stop-color="#FF41CD"/>
<stop offset="1" stop-color="#D4009C" stop-opacity="0"/>
</radialGradient>
</defs>
</svg>
