<svg width="138" height="86" viewBox="0 0 138 86" fill="none" xmlns="http://www.w3.org/2000/svg">
<path fill-rule="evenodd" clip-rule="evenodd" d="M32.6002 85.6702C38.9661 85.6702 44.9003 83.2091 49.8951 78.9627C54.8899 83.2091 60.8241 85.6702 67.19 85.6702C74.3436 85.6702 80.952 82.5624 86.2949 77.3058C91.6377 82.5624 98.2461 85.6702 105.4 85.6702C123.17 85.6702 137.576 66.4922 137.576 42.8351C137.576 19.1779 123.17 0 105.4 0C98.2461 0 91.6377 3.10775 86.2949 8.36441C80.952 3.10775 74.3436 0 67.19 0C60.8241 0 54.8899 2.46106 49.8951 6.70746C44.9003 2.46106 38.9661 0 32.6002 0C14.8295 0 0.423584 19.1779 0.423584 42.8351C0.423584 66.4922 14.8295 85.6702 32.6002 85.6702Z" fill="url(#paint0_radial_5027_12529)"/>
<path fill-rule="evenodd" clip-rule="evenodd" d="M32.6002 85.6702C38.9661 85.6702 44.9003 83.2091 49.8951 78.9627C54.8899 83.2091 60.8241 85.6702 67.19 85.6702C74.3436 85.6702 80.952 82.5624 86.2949 77.3058C91.6377 82.5624 98.2461 85.6702 105.4 85.6702C123.17 85.6702 137.576 66.4922 137.576 42.8351C137.576 19.1779 123.17 0 105.4 0C98.2461 0 91.6377 3.10775 86.2949 8.36441C80.952 3.10775 74.3436 0 67.19 0C60.8241 0 54.8899 2.46106 49.8951 6.70746C44.9003 2.46106 38.9661 0 32.6002 0C14.8295 0 0.423584 19.1779 0.423584 42.8351C0.423584 66.4922 14.8295 85.6702 32.6002 85.6702Z" fill="url(#paint1_radial_5027_12529)"/>
<path d="M26.9968 44.4238L26.4773 46.3544L28.4307 46.8773L28.0566 45.4494L26.9968 44.4238ZM36.743 45.4494L36.3689 46.8773L38.3223 46.3544L37.8028 44.4238L36.743 45.4494ZM28.0566 40.6229L26.9968 41.6486L27.3916 43.0362L28.0566 40.6229Z" fill="white"/>
<path d="M27.3907 43.0361L26.9958 44.4238L28.0557 45.4494L27.3907 43.0361Z" fill="white"/>
<path d="M26.9959 41.6486L25.562 43.0362L26.9959 44.4238L27.3907 43.0362L26.9959 41.6486ZM29.9052 47.2392L30.965 48.2649L32.3989 47.8828L29.9052 47.2392ZM33.8327 48.2649L35.8277 48.7676L36.368 46.8773L34.8926 47.2392L33.8327 48.2649Z" fill="white"/>
<path d="M34.892 47.2393L36.3674 46.8773L36.7415 45.4495L34.892 47.2393ZM28.4292 46.8773L28.9695 48.7677L30.9645 48.2649L29.9046 47.2393L28.4292 46.8773ZM32.3983 47.8828L33.8322 48.2649L34.892 47.2393L32.3983 47.8828Z" fill="white"/>
<path d="M30.9659 48.2649L32.3998 49.6525L33.8337 48.2649L32.3998 47.8828L30.9659 48.2649ZM28.4307 39.1951L26.4773 39.7179L26.9968 41.6485L28.0566 40.6229L28.4307 39.1951ZM28.0566 45.4494L28.4307 46.8772L29.9061 47.2392L28.0566 45.4494ZM37.408 43.0362L37.8028 41.6485L36.743 40.6229L37.408 43.0362Z" fill="white"/>
<path d="M29.9051 38.8333L28.4297 39.1952L28.0557 40.6231L29.9051 38.8333ZM36.742 40.6231L36.368 39.1952L34.8925 38.8333L36.742 40.6231ZM37.8018 44.4239L39.2357 43.0363L37.8018 41.6487L37.407 43.0363L37.8018 44.4239Z" fill="white"/>
<path d="M36.7424 40.6229L34.893 38.8331L32.3993 38.1896L29.9056 38.8331L28.0561 40.6229L27.3911 43.0362L28.0561 45.4494L29.9056 47.2393L32.3993 47.8828L34.893 47.2393L36.7424 45.4494L37.4074 43.0362L36.7424 40.6229Z" fill="white"/>
<path d="M36.7415 45.4494L37.8013 44.4238L37.4065 43.0362L36.7415 45.4494ZM37.8013 41.6485L38.3208 39.7179L36.3674 39.1951L36.7415 40.6229L37.8013 41.6485ZM36.3674 39.1951L35.8271 37.3047L33.8322 37.8074L34.892 38.8331L36.3674 39.1951ZM30.9645 37.8074L28.9695 37.3047L28.4292 39.1951L29.9046 38.8331L30.9645 37.8074ZM32.3983 38.1895L30.9645 37.8074L29.9046 38.8331L32.3983 38.1895Z" fill="white"/>
<path d="M33.8333 37.8077L32.3994 36.42L30.9656 37.8077L32.3994 38.1898L33.8333 37.8077Z" fill="white"/>
<path d="M34.8926 38.8331L33.8327 37.8075L32.3989 38.1896L34.8926 38.8331ZM30.965 48.2649L28.9701 48.7677L29.9052 52.106L32.3989 49.6525L30.965 48.2649ZM29.9052 52.106L32.3989 61.1356L34.8926 52.106L32.3989 49.6525L29.9052 52.106ZM28.4298 46.8773L26.4764 46.3544L25.562 49.6525L28.9701 48.7677L28.4298 46.8773Z" fill="white"/>
<path d="M25.5623 49.6525L23.0686 58.7223L29.9055 52.106L28.9703 48.7677L25.5623 49.6525ZM23.0686 45.4495L16.1902 52.106L25.5623 49.6525L26.4767 46.3544L23.0686 45.4495Z" fill="white"/>
<path d="M26.9959 44.4239L25.562 43.0362L23.0684 45.4495L26.4764 46.3544L26.9959 44.4239ZM26.9959 41.6486L26.4764 39.718L23.0684 40.623L25.562 43.0362L26.9959 41.6486Z" fill="white"/>
<path d="M23.0686 40.6229L13.6965 43.0362L23.0686 45.4494L25.5623 43.0362L23.0686 40.6229ZM41.7713 45.4494L38.3217 46.3544L39.2361 49.6525L48.6082 52.106L41.7713 45.4494Z" fill="white"/>
<path d="M36.3683 46.8772L35.828 48.7676L39.236 49.6525L38.3217 46.3543L36.3683 46.8772ZM33.833 48.2648L32.3992 49.6525L34.8929 52.1059L35.828 48.7676L33.833 48.2648ZM37.8022 44.4238L38.3217 46.3543L41.7713 45.4494L39.236 43.0361L37.8022 44.4238Z" fill="white"/>
<path d="M34.8928 52.1062L41.7713 58.7225L39.236 49.6527L35.828 48.7678L34.8928 52.1062ZM36.3683 39.1953L38.3216 39.7181L39.236 36.42L35.828 37.3049L36.3683 39.1953Z" fill="white"/>
<path d="M41.7712 40.623L48.6081 34.0066L39.236 36.4199L38.3216 39.718L41.7712 40.623ZM39.236 36.4199L41.7712 27.3501L34.8928 34.0066L35.828 37.3047L39.236 36.4199ZM41.7712 45.4495L51.1018 43.0362L41.7712 40.623L39.236 43.0362L41.7712 45.4495Z" fill="white"/>
<path d="M37.8019 41.6486L39.2358 43.0362L41.771 40.623L38.3214 39.718L37.8019 41.6486ZM29.9052 34.0066L23.0684 27.3501L25.562 36.4199L28.9701 37.3047L29.9052 34.0066Z" fill="white"/>
<path d="M28.4297 39.1953L28.9701 37.3049L25.562 36.42L26.4764 39.7181L28.4297 39.1953Z" fill="white"/>
<path d="M25.5623 36.42L16.1902 34.0067L23.0686 40.623L26.4767 39.7181L25.5623 36.42ZM33.833 37.8076L35.828 37.3048L34.8929 34.0067L32.3992 36.42L33.833 37.8076Z" fill="white"/>
<path d="M34.8929 34.0067L32.3992 24.9369L29.9055 34.0067L32.3992 36.4199L34.8929 34.0067Z" fill="white"/>
<path d="M30.9644 37.8076L32.3983 36.42L29.9046 34.0067L28.9695 37.3048L30.9644 37.8076Z" fill="white"/>
<path d="M32.3985 53.3126C38.2632 53.3126 43.0175 48.7117 43.0175 43.0362C43.0175 37.3607 38.2632 32.7598 32.3985 32.7598C26.5338 32.7598 21.7795 37.3607 21.7795 43.0362C21.7795 48.7117 26.5338 53.3126 32.3985 53.3126Z" fill="#FE00BA"/>
<path d="M32.3992 52.1059C37.5753 52.1059 41.7713 48.0452 41.7713 43.0361C41.7713 38.027 37.5753 33.9663 32.3992 33.9663C27.2231 33.9663 23.0271 38.027 23.0271 43.0361C23.0271 48.0452 27.2231 52.1059 32.3992 52.1059Z" fill="white"/>
<path d="M88.3312 42.8803C88.3312 48.5064 86.611 53.5578 83.8823 57.1781C81.154 60.7978 77.4677 62.9359 73.4869 62.9359C69.5061 62.9359 65.8198 60.7978 63.0914 57.1781C60.3627 53.5578 58.6425 48.5064 58.6425 42.8803C58.6425 37.2542 60.3627 32.2028 63.0914 28.5825C65.8198 24.9628 69.5061 22.8247 73.4869 22.8247C77.4677 22.8247 81.154 24.9628 83.8823 28.5825C86.611 32.2028 88.3312 37.2542 88.3312 42.8803Z" stroke="white" stroke-width="2.21086"/>
<mask id="mask0_5027_12529" style="mask-type:alpha" maskUnits="userSpaceOnUse" x="57" y="21" width="33" height="44">
<ellipse cx="73.4869" cy="42.8803" rx="15.9498" ry="21.1611" fill="white"/>
</mask>
<g mask="url(#mask0_5027_12529)">
<ellipse cx="82.6462" cy="42.8802" rx="13.4336" ry="17.8227" fill="white"/>
</g>
<path d="M123.198 42.8803C123.198 48.5064 121.478 53.5578 118.749 57.1781C116.021 60.7978 112.334 62.9359 108.354 62.9359C104.373 62.9359 100.686 60.7978 97.9581 57.1781C95.2294 53.5578 93.5092 48.5064 93.5092 42.8803C93.5092 37.2542 95.2294 32.2028 97.9581 28.5825C100.686 24.9628 104.373 22.8247 108.354 22.8247C112.334 22.8247 116.021 24.9628 118.749 28.5825C121.478 32.2028 123.198 37.2542 123.198 42.8803Z" stroke="white" stroke-width="2.21086"/>
<mask id="mask1_5027_12529" style="mask-type:alpha" maskUnits="userSpaceOnUse" x="92" y="21" width="33" height="44">
<ellipse cx="108.354" cy="42.8803" rx="15.9498" ry="21.1611" fill="white"/>
</mask>
<g mask="url(#mask1_5027_12529)">
<ellipse cx="117.513" cy="42.8802" rx="13.4336" ry="17.8227" fill="white"/>
</g>
<defs>
<radialGradient id="paint0_radial_5027_12529" cx="0" cy="0" r="1" gradientUnits="userSpaceOnUse" gradientTransform="translate(-5.40842 1.1154e-06) rotate(44.561) scale(74.2315 118.84)">
<stop stop-color="#FBFFD1"/>
<stop offset="1" stop-color="#D5009C"/>
</radialGradient>
<radialGradient id="paint1_radial_5027_12529" cx="0" cy="0" r="1" gradientUnits="userSpaceOnUse" gradientTransform="translate(99.1655 43.0362) rotate(18.0761) scale(60.9248 97.5369)">
<stop stop-color="#FF41CD"/>
<stop offset="1" stop-color="#D4009C" stop-opacity="0"/>
</radialGradient>
</defs>
</svg>
